/* XPM */
static char * Minecraft_Creeper_Wallpaper_by_LynchMob10_09_1_[] = {
"16 16 220 2",
"   c #1CA014",
".  c #6CC063",
"X  c #83C979",
"o  c #20A118",
"O  c #30A626",
"+  c #4AB03F",
"@  c #82C67B",
"#  c #9DD099",
"$  c #BFDBB9",
"%  c #90DB80",
"&  c #7CD96A",
"*  c #73CC63",
"=  c #5DB150",
"-  c #489540",
";  c #88C57E",
":  c #96D08D",
">  c #46B63E",
",  c #46AE3E",
"<  c #6CB863",
"1  c #37AB2F",
"2  c #34AB2C",
"3  c #45AD38",
"4  c #65BB5B",
"5  c #81C77A",
"6  c #90BF8A",
"7  c #85C879",
"8  c #77D966",
"9  c #6CC65B",
"0  c #6AC15B",
"q  c #71AD6B",
"w  c #6DB264",
"e  c #6CB762",
"r  c #62C45A",
"t  c #48AE40",
"y  c #288F1F",
"u  c #55BA4C",
"i  c #58BD4E",
"p  c #43AE33",
"a  c #56BA4A",
"s  c #6AC65E",
"d  c #43903C",
"f  c #56AF4A",
"g  c #6ED65C",
"h  c #5EBD4E",
"j  c #67BD58",
"k  c #BFDDBA",
"l  c #5DAA56",
"z  c #278E1F",
"x  c #88D57B",
"c  c #41B334",
"v  c #0F270D",
"b  c #091508",
"n  c #071305",
"m  c #4C7C46",
"M  c #84D27A",
"N  c #4A9945",
"B  c #2E5F2A",
"V  c #0C170A",
"C  c #0A1508",
"Z  c #1E2B1D",
"A  c #C5E1C0",
"S  c #70C466",
"D  c #41B434",
"F  c #76CF69",
"G  c #6BC95F",
"H  c #46BA38",
"J  c #071505",
"K  c #000000",
"L  c #487342",
"P  c #82D277",
"I  c #4B9D45",
"U  c #295626",
"Y  c #141914",
"T  c #B9DEB3",
"R  c #6FC763",
"E  c #61C852",
"W  c #59C64A",
"Q  c #4DC43F",
"!  c #081707",
"~  c #346F2D",
"^  c #61C752",
"/  c #44AF36",
"(  c #25601E",
")  c #72CA62",
"_  c #5AC64A",
"`  c #5EB84F",
"'  c #62C053",
"]  c #69C95C",
"[  c #386E2F",
"{  c #36662E",
"}  c #4B7345",
"|  c #386633",
" . c #2A5823",
".. c #1D4E19",
"X. c #3B6037",
"o. c #61775C",
"O. c #2C5228",
"+. c #295A24",
"@. c #64CA54",
"#. c #67C959",
"$. c #56AB4A",
"%. c #6ABC5C",
"&. c #83D078",
"*. c #60B551",
"=. c #62B755",
"-. c #86D07D",
";. c #3B5D38",
":. c #4E5F4B",
">. c #AED5A7",
",. c #50974A",
"<. c #42923A",
"1. c #5BCC4C",
"2. c #74CD67",
"3. c #469440",
"4. c #62A95A",
"5. c #94D18B",
"6. c #4E9947",
"7. c #3B7D36",
"8. c #020301",
"9. c #020302",
"0. c #52AD44",
"q. c #68CD58",
"w. c #A9D8A3",
"e. c #9CD393",
"r. c #95D28B",
"t. c #569E51",
"y. c #6CB065",
"u. c #A0DB97",
"i. c #579F51",
"p. c #42813E",
"a. c #4FA541",
"s. c #60C251",
"d. c #7EBA77",
"f. c #94CE8B",
"g. c #A1DA97",
"h. c #61AB5A",
"j. c #7BBA75",
"k. c #B2E7A9",
"l. c #65A95F",
"z. c #4E894A",
"x. c #4D9E41",
"c. c #58B64A",
"v. c #4A9941",
"b. c #8BC982",
"n. c #B2E6A8",
"m. c #79D86A",
"M. c #73D163",
"N. c #6CD15D",
"B. c #74D166",
"V. c #64B258",
"C. c #3F6239",
"Z. c #74B268",
"A. c #86B37E",
"S. c #4A6445",
"D. c #2F7B27",
"F. c #3A9631",
"G. c #5FC151",
"H. c #67CB58",
"J. c #92DE84",
"K. c #74D564",
"L. c #60CA4F",
"P. c #7DD96D",
"I. c #6EBD61",
"U. c #0B170A",
"Y. c #487B40",
"T. c #7BCC6E",
"R. c #93CE8A",
"E. c #557D4F",
"W. c #0A1707",
"Q. c #2D7D25",
"!. c #38952F",
"~. c #66C956",
"^. c #62C952",
"/. c #60CA50",
"(. c #A9E29F",
"). c #8CD07E",
"_. c #57B148",
"`. c #A0DC96",
"'. c #A0DD95",
"]. c #66C656",
"[. c #32AC29",
"{. c #0C9907",
"}. c #3CAD30",
"|. c #48B93B",
" X c #5ACB4A",
".X c #4EC33F",
"XX c #51C443",
"oX c #7CD173",
"OX c #64BC57",
"+X c #58B049",
"@X c #92D989",
"#X c #80CE74",
"$X c #5AB84A",
"%X c #8FD686",
"&X c #8AD281",
"*X c #49A340",
"=X c #279D20",
"-X c #0D9A08",
";X c #24A31D",
":X c #3CB231",
">X c #5BC54B",
",X c #49B739",
"<X c #4CB83E",
"1X c #8ED884",
"2X c #6DC35F",
"3X c #5AB74B",
"4X c #8DD884",
"5X c #7ACD6F",
"6X c #5DBD4D",
"7X c #87D47D",
"8X c #7FCC77",
"9X c #3A9035",
"0X c #20941B",
"qX c #199F13",
"wX c #37AF2C",
"eX c #5DC44C",
"rX c #45B136",
"tX c #4AB33C",
"yX c #99DD8F",
"uX c #72C764",
"  . X o O + @ # $ % & * = - ; : ",
"> , < 1 2 3 4 5 6 7 8 9 0 q w e ",
"r t y u i p a s d f g h j k l z ",
"x s c v b n m M N B V C Z A S D ",
"F G H J K K L P I U K K Y T R H ",
"E W Q ! K K ~ ^ / ( K K V ) _ Q ",
"` ' ] [ { } |  ...X.o.O.+.@.#.] ",
"$.%.&.*.=.-.;.K K :.>.,.<.1.2.&.",
"3.4.5.6.7.8.K K K K 9.0.q.w.e.r.",
"t.y.u.i.p.K K K K K K a.s.d.f.g.",
"h.j.k.l.z.K K K K K K x.c.v.b.n.",
"m.M.N.B.V.K C.Z.A.S.K D.F.G.H.N.",
"J.K.L.P.I.U.Y.T.R.E.W.Q.!.~.^./.",
"(.)._.`.'.].[.{.}.|. X.XXXoXOX+X",
"@X#X$X%X&X*X=X-X;X:X>X,X<X1X2X3X",
"4X5X6X7X8X9X0X-XqXwXeXrXtXyXuXh "};
