/* XPM */
static char * Minecraft_Creeper_Wallpaper_by_LynchMob10_09_1__2[] = {
"24 24 480 2",
"   c #1A9F12",
".  c #24A31C",
"X  c #79C570",
"o  c #92CE8A",
"O  c #58B850",
"+  c #1DA016",
"@  c #22A219",
"#  c #42AC37",
"$  c #49AF3D",
"%  c #71BF6A",
"&  c #90CB8C",
"*  c #A0D19C",
"=  c #BBDAB5",
"-  c #B7DBB0",
";  c #8BDB7A",
":  c #7DDB6B",
">  c #78D366",
",  c #72CB62",
"<  c #69C05B",
"1  c #4B9B42",
"2  c #499540",
"3  c #74B66B",
"4  c #96D08D",
"5  c #1FA217",
"6  c #1B9E13",
"7  c #6ABD61",
"8  c #95D08C",
"9  c #74C26A",
"0  c #22A119",
"q  c #1B9F13",
"w  c #3CA932",
"e  c #48AE3D",
"r  c #62B85A",
"t  c #8FCB8B",
"y  c #97CD93",
"u  c #B5D7B0",
"i  c #BEDAB9",
"p  c #96D989",
"a  c #7FDC6D",
"s  c #7BD669",
"d  c #73CB63",
"f  c #6FC760",
"g  c #50A046",
"h  c #45923D",
"j  c #60A656",
"k  c #95CF8C",
"l  c #95CF8B",
"z  c #4DB944",
"x  c #45B43D",
"c  c #48A941",
"v  c #4CA544",
"b  c #4AA841",
"n  c #45B23C",
"m  c #44AE36",
"M  c #44AD35",
"N  c #57B649",
"B  c #76C76D",
"V  c #74C16B",
"C  c #6FAE67",
"Z  c #6EAA66",
"A  c #70C462",
"S  c #71D761",
"D  c #6ED05C",
"F  c #63BE54",
"G  c #66BF57",
"H  c #87C17E",
"J  c #94C18E",
"K  c #7AB673",
"L  c #4BA443",
"P  c #4CA343",
"I  c #5CC154",
"U  c #389F30",
"Y  c #288F1F",
"T  c #359B2C",
"R  c #58BD4F",
"E  c #48B23A",
"W  c #43AE33",
"Q  c #50B643",
"!  c #6AC65E",
"~  c #63BD58",
"^  c #499942",
"/  c #43903C",
"(  c #5CBA4F",
")  c #6ED65C",
"_  c #68CE57",
"`  c #5CB94C",
"'  c #62BB53",
"]  c #A4D39C",
"[  c #BFDDBA",
"{  c #89C183",
"}  c #278F1E",
"|  c #278E1F",
" . c #71CB68",
".. c #67C65E",
"X. c #41A838",
"o. c #2F9925",
"O. c #34952A",
"+. c #418E3A",
"@. c #438E3D",
"#. c #35832A",
"$. c #318026",
"%. c #489B3E",
"&. c #72CA66",
"*. c #6AC05F",
"=. c #4D9B45",
"-. c #45923E",
";. c #4B9941",
":. c #509D43",
">. c #4C973F",
",. c #438838",
"<. c #4B8D3F",
"1. c #9FC799",
"2. c #C0DEBB",
"3. c #8DC687",
"4. c #2F9A24",
"5. c #88D57C",
"6. c #86D37A",
"7. c #59BF4C",
"8. c #43B635",
"9. c #328927",
"0. c #081607",
"q. c #050B05",
"w. c #030B03",
"e. c #030A03",
"r. c #365832",
"t. c #87D47D",
"y. c #7CC972",
"u. c #55A34F",
"i. c #4B9A46",
"p. c #21431E",
"a. c #060D05",
"s. c #060C05",
"d. c #050B04",
"f. c #11180F",
"g. c #93A98F",
"h. c #C6E2C0",
"j. c #97D290",
"k. c #83D376",
"l. c #89D57E",
"z. c #5BC24E",
"x. c #45B937",
"c. c #328828",
"v. c #040B03",
"b. c #000000",
"n. c #355332",
"m. c #8AD67F",
"M. c #7ECB74",
"N. c #57A551",
"B. c #4D9B48",
"V. c #1E3C1C",
"C. c #0C0E0C",
"Z. c #92A78F",
"A. c #C7E3C1",
"S. c #99D391",
"D. c #45B936",
"F. c #66CA56",
"G. c #6ACA5C",
"H. c #55C346",
"J. c #4AC03C",
"K. c #368D2C",
"L. c #040C03",
"P. c #284E24",
"I. c #63C456",
"U. c #4AAE40",
"Y. c #44A93A",
"T. c #1A4016",
"R. c #080D07",
"E. c #629757",
"W. c #85CE77",
"Q. c #71CA62",
"!. c #4BC03C",
"~. c #61C852",
"^. c #53C544",
"/. c #4DC43F",
"(. c #38902E",
"). c #244E20",
"_. c #62C853",
"`. c #5CC34D",
"'. c #48B33A",
"]. c #44AF35",
"[. c #1A4415",
"{. c #070D05",
"}. c #549548",
"|. c #72CA62",
" X c #64C754",
".X c #4EC43F",
"XX c #5EBC4F",
"oX c #5FBF50",
"OX c #5FC452",
"+X c #61C854",
"@X c #50A545",
"#X c #274E21",
"$X c #24461E",
"%X c #2F4E2C",
"&X c #355131",
"*X c #366131",
"=X c #3B7A31",
"-X c #37772E",
";X c #2B6D23",
":X c #296B21",
">X c #395C35",
",X c #445441",
"<X c #384B36",
"1X c #183516",
"2X c #1C3F19",
"3X c #52A245",
"4X c #68CA57",
"5X c #65C956",
"6X c #61C753",
"7X c #5DB44E",
"8X c #5DB34E",
"9X c #75C569",
"0X c #82D077",
"qX c #78C86C",
"wX c #5FB550",
"eX c #5EB44F",
"rX c #7CCB72",
"tX c #89D47E",
"yX c #53814D",
"uX c #6C8368",
"iX c #B1D8A9",
"pX c #94C58D",
"aX c #408D3A",
"sX c #41903A",
"dX c #52BA46",
"fX c #5ACC4B",
"gX c #67CD59",
"hX c #83D078",
"jX c #55A949",
"kX c #59AD4B",
"lX c #76C36A",
"zX c #85D07B",
"xX c #79C76E",
"cX c #5BAF4E",
"vX c #5AAE4C",
"bX c #69AD60",
"nX c #70AE68",
"mX c #446A3F",
"MX c #596C55",
"NX c #91B28C",
"BX c #7DAA77",
"VX c #45973D",
"CX c #469A3E",
"ZX c #5EBE51",
"AX c #68CD5A",
"SX c #71CE65",
"DX c #85CF7B",
"FX c #86D07B",
"GX c #489641",
"HX c #4A9842",
"JX c #78BD6F",
"KX c #91D188",
"LX c #7DC175",
"PX c #244121",
"IX c #182516",
"UX c #0D160D",
"YX c #121611",
"TX c #1F261D",
"RX c #2D4C29",
"EX c #5BC14C",
"WX c #5EC24F",
"QX c #89CF80",
"!X c #9BD594",
"~X c #98D38F",
"^X c #92D188",
"/X c #91D187",
"(X c #489542",
")X c #469340",
"_X c #79BB70",
"`X c #95D28C",
"'X c #80C177",
"]X c #4A9644",
"[X c #11240F",
"{X c #183315",
"}X c #61CD50",
"|X c #65CE55",
" o c #96D48D",
".o c #AAD8A4",
"Xo c #A2D59B",
"oo c #95D28B",
"Oo c #579F52",
"+o c #539B4E",
"@o c #88C580",
"#o c #A5DE9C",
"$o c #8FCC87",
"%o c #579E52",
"&o c #132612",
"*o c #172F13",
"=o c #5DC14D",
"-o c #5DBF4E",
";o c #6AB45F",
":o c #6FB067",
">o c #82C079",
",o c #A6DE9C",
"<o c #A5DD9C",
"1o c #5CA257",
"2o c #5DA258",
"3o c #93CE8C",
"4o c #B2E7A9",
"5o c #9BD493",
"6o c #61A55C",
"7o c #162815",
"8o c #172D13",
"9o c #5BBB4D",
"0o c #59B84B",
"qo c #4EA143",
"wo c #4A9840",
"eo c #6DB364",
"ro c #B2E6A8",
"to c #6ABC5F",
"yo c #64AF5C",
"uo c #89CE7E",
"io c #9DE092",
"po c #8ED283",
"ao c #66B15E",
"so c #63AF5C",
"do c #172B15",
"fo c #0D140A",
"go c #21341D",
"ho c #21341E",
"jo c #253422",
"ko c #273424",
"lo c #0E140D",
"zo c #132A10",
"xo c #50AD43",
"co c #4FAC43",
"vo c #4FA544",
"bo c #4FA345",
"no c #69B75F",
"mo c #9DDF91",
"Mo c #9EDF91",
"No c #7CDC6B",
"Bo c #7CDC6C",
"Vo c #6AD159",
"Co c #60CE50",
"Zo c #67D157",
"Ao c #7ADA6A",
"So c #7CDB6C",
"Do c #1E361A",
"Fo c #355230",
"Go c #89D27B",
"Ho c #8DD380",
"Jo c #9BD491",
"Ko c #A0D596",
"Lo c #3E543A",
"Po c #0D220A",
"Io c #328B2A",
"Uo c #348E2B",
"Yo c #56B848",
"To c #64C954",
"Ro c #62CA51",
"Eo c #60CD4F",
"Wo c #60CD50",
"Qo c #85DC75",
"!o c #7EDB6E",
"~o c #6BD059",
"^o c #61CC50",
"/o c #68CF58",
"(o c #7CDA6C",
")o c #233F1E",
"_o c #355830",
"`o c #82CF74",
"'o c #85CF78",
"]o c #94D08B",
"[o c #99D290",
"{o c #3F5A3A",
"}o c #050C04",
"|o c #102B0D",
" O c #338D2A",
".O c #35902C",
"XO c #57B849",
"oO c #65C955",
"OO c #63C953",
"+O c #61CB50",
"@O c #A3E198",
"#O c #70C561",
"$O c #59B84A",
"%O c #6BC25C",
"&O c #99DD8D",
"*O c #9EE092",
"=O c #5FA453",
"-O c #4B923F",
";O c #3D9A34",
":O c #2CA825",
">O c #33AA2B",
",O c #4EB443",
"<O c #56B84B",
"1O c #48A23D",
"2O c #429536",
"3O c #429B36",
"4O c #45B338",
"5O c #47B43B",
"6O c #68C65C",
"7O c #75CE6A",
"8O c #6BC65E",
"9O c #5AB84A",
"0O c #5AB74B",
"qO c #A9E29F",
"wO c #AAE19F",
"eO c #73C265",
"rO c #57B148",
"tO c #6CBD5F",
"yO c #A5DE9B",
"uO c #ABE2A1",
"iO c #77CC68",
"pO c #66C656",
"aO c #41B436",
"sO c #0C9907",
"dO c #149C0D",
"fO c #33A928",
"gO c #3DAE31",
"hO c #4DBE3F",
"jO c #5ACB4A",
"kO c #55C746",
"lO c #4DC33E",
"zO c #4FC441",
"xO c #6FCC64",
"cO c #7CD173",
"vO c #6EC564",
"bO c #57B048",
"nO c #58B049",
"mO c #99DB8F",
"MO c #9FDD95",
"NO c #70C262",
"BO c #59B449",
"VO c #6BBE5D",
"CO c #9BDB90",
"ZO c #9FDE95",
"AO c #68BD5B",
"SO c #56B34A",
"DO c #38A82F",
"FO c #0D9A08",
"GO c #129C0C",
"HO c #29A51F",
"JO c #30A826",
"KO c #48BA3C",
"LO c #5AC84A",
"PO c #55C445",
"IO c #49BB3A",
"UO c #4BBC3D",
"YO c #74CD69",
"TO c #85D47B",
"RO c #75C86A",
"EO c #59B44A",
"WO c #8DD884",
"QO c #8CD783",
"!O c #6CC55F",
"~O c #5DBD4D",
"^O c #69C35B",
"/O c #89D580",
"(O c #8DD783",
")O c #4CA146",
"_O c #398F34",
"`O c #279222",
"'O c #0E9A09",
"]O c #169D11",
"[O c #199F14",
"{O c #41B535",
"}O c #5DC34C",
"|O c #55BD45",
" + c #41AD32",
".+ c #46B038",
"X+ c #80D075",
"o+ c #98DD8E",
"O+ c #83D177",
"++ c #5DBC4D",
"@+ c #6DC55F",
"#+ c #89D680",
"$+ c #3A9035",
"%+ c #279322",
"&+ c #0F9A0A",
"*+ c #179E11",
"=+ c #1AA014",
"-+ c #42B535",
";+ c #5DC44C",
":+ c #56BE46",
">+ c #41AE33",
",+ c #81D076",
"<+ c #99DD8F",
"1+ c #5EBD4E",
"  . X o O + @ # $ % & * = - ; : > , < 1 2 3 4 4 ",
"5 6 7 8 9 0 q w e r t y u i p a s d f g h j k l ",
"z x c v b n x m M N B V C Z A S D F G H J K L P ",
"I I U Y T R I E W Q ! ~ ^ / ( ) _ ` ' ] [ { } | ",
" ...X.o.O.+.@.#.$.%.&.*.=.-.;.:.>.,.<.1.2.3.4.o.",
"5.6.7.8.9.0.q.w.e.r.t.y.u.i.p.a.s.d.f.g.h.j.8.8.",
"k.l.z.x.c.v.b.b.b.n.m.M.N.B.V.b.b.b.C.Z.A.S.D.D.",
"F.G.H.J.K.L.b.b.b.P.G.I.U.Y.T.b.b.b.R.E.W.Q.!.J.",
"~.~.^./.(.L.b.b.b.)._.`.'.].[.b.b.b.{.}.|. X.X/.",
"XXoXOX+X@X#X$X%X&X*X=X-X;X:X>X,X<X1X2X3X4X5X6X6X",
"7X8X9X0XqXwXeXrXtXyXb.b.b.b.uXiXpXaXsXdXfXgX0XhX",
"jXkXlXzXxXcXvXbXnXmXb.b.b.b.MXNXBXVXCXZXAXSXDXFX",
"GXHXJXKXLX=.HXPXIXUXb.b.b.b.YXTXRXEXWXQX!X~X^X/X",
"(X)X_X`X'X]X)X[Xb.b.b.b.b.b.b.b.{X}X|X o.oXo`Xoo",
"Oo+o@o#o$o%o+o&ob.b.b.b.b.b.b.b.*o=o-o;o:o>o,o<o",
"1o2o3o4o5o6o2o7ob.b.b.b.b.b.b.b.8o9o0oqowoeororo",
"toyouoiopoaosodob.fogohojokolob.zoxocovobonomoMo",
"NoBoVoCoZoAoSoDob.FoGoHoJoKoLob.PoIoUoYoToRoEoWo",
"Qo!o~o^o/o(o!o)os._o`o'o]o[o{o}o|o O.OXOoOOO^o+O",
"@Omo#O$O%O&O*O=O-O;O:O>O,O<O1O2O3O4O5O6O7O8O9O0O",
"qOwOeOrOtOyOuOiOpOaOsOdOfOgOhOjOkOlOzOxOcOvObOnO",
"mOMONOBOVOCOZOAOSODOFOGOHOJOKOLOPOIOUOYOTOROBOEO",
"WOQO!O~O^O/O(O)O_O`OFO'O]O[O{O}O|O +.+X+o+O+~O++",
"WOQO@+~O^O#+WO)O$+%+FO&+*+=+-+;+:+>+.+,+<+O+~O1+"};
