/* XPM */
static char * Minecraft_Creeper_Wallpaper_by_LynchMob10_09_1__4[] = {
"48 48 814 2",
"   c #1A9F12",
".  c #1DA015",
"X  c #54B64A",
"o  c #91CE87",
"O  c #96D08E",
"+  c #96D08D",
"@  c #94D08B",
"#  c #41AF39",
"$  c #1A9F13",
"%  c #1EA016",
"&  c #3CAA32",
"*  c #48AF3C",
"=  c #54B449",
"-  c #84C77E",
";  c #91CB8C",
":  c #90CB8C",
">  c #90CC8C",
",  c #9BCF97",
"<  c #BFDBBB",
"1  c #BFDCB9",
"2  c #BEDBB9",
"3  c #9EDB94",
"4  c #7CDA6A",
"5  c #7BD969",
"6  c #7AD969",
"7  c #7AD968",
"8  c #75D063",
"9  c #72CB61",
"0  c #72CB62",
"q  c #6DC55E",
"w  c #50A146",
"e  c #44923C",
"r  c #549E4C",
"t  c #8AC77F",
"y  c #96D18C",
"u  c #96CF8E",
"i  c #1B9F13",
"p  c #39AB31",
"a  c #8BCC81",
"s  c #95D08D",
"d  c #95CF8B",
"f  c #52B549",
"g  c #1B9E14",
"h  c #32A52A",
"j  c #48AE3C",
"k  c #49AF3D",
"l  c #79C272",
"z  c #90CB8B",
"x  c #8FCB8C",
"c  c #8FCB8B",
"v  c #BFDBBA",
"b  c #BFDBB9",
"n  c #A9DAA1",
"m  c #7DDA6B",
"M  c #7DD96A",
"N  c #77D266",
"B  c #73CB61",
"V  c #73CB63",
"C  c #5DB051",
"Z  c #45923D",
"A  c #44913C",
"S  c #4A9541",
"D  c #81BF77",
"F  c #96CF8C",
"G  c #96D08C",
"H  c #96CF8D",
"J  c #95D08C",
"K  c #BEDBBA",
"L  c #A9DAA0",
"P  c #7DDB6B",
"I  c #7FDC6D",
"U  c #7FDB6C",
"Y  c #78D267",
"T  c #72CA62",
"R  c #5CB051",
"E  c #1CA014",
"W  c #1B9E13",
"Q  c #39AA31",
"!  c #8ACB81",
"~  c #95D08B",
"^  c #52B449",
"/  c #48AE3D",
"(  c #78C172",
")  c #BEDABA",
"_  c #BEDAB9",
"`  c #AAD9A0",
"'  c #7EDA6C",
"]  c #80BF77",
"[  c #95CF8A",
"{  c #38AF30",
"}  c #2AA622",
"|  c #2AA722",
" . c #2AA623",
".. c #3DAB36",
"X. c #71BC69",
"o. c #79BE70",
"O. c #79BF70",
"+. c #78BF6F",
"@. c #4EB045",
"#. c #2BA623",
"$. c #2AA723",
"%. c #38A92E",
"&. c #46AE39",
"*. c #47AE3A",
"=. c #46AD3A",
"-. c #72C069",
";. c #86CA80",
":. c #85C97F",
">. c #9EC799",
",. c #9FC79A",
"<. c #9EC699",
"1. c #92CB89",
"2. c #7AD967",
"3. c #7ADA68",
"4. c #73CE62",
"5. c #6DC65D",
"6. c #67B55C",
"7. c #63A45C",
"8. c #64A55D",
"9. c #73B76A",
"0. c #78BE6F",
"q. c #79BE6F",
"w. c #59BF50",
"e. c #56BD4E",
"r. c #56BE4E",
"t. c #4BB344",
"y. c #319629",
"u. c #2F9327",
"i. c #43A83A",
"p. c #4BB43E",
"a. c #43AE33",
"s. c #43AD33",
"d. c #42AC33",
"f. c #5FBE52",
"g. c #6DC661",
"h. c #6CC661",
"j. c #4D9646",
"k. c #4D9746",
"l. c #4E9745",
"z. c #58AA4C",
"x. c #6ED55D",
"c. c #6DD65D",
"v. c #6DD65C",
"b. c #67C855",
"n. c #5EBA4E",
"m. c #5EBB4F",
"M. c #5DBA4E",
"N. c #85C67A",
"B. c #B4D6B0",
"V. c #A8D0A4",
"C. c #4FA348",
"Z. c #2E9326",
"A. c #2F9227",
"S. c #5BC153",
"D. c #5CC154",
"F. c #4DB445",
"G. c #2A9222",
"H. c #288F1F",
"J. c #42A838",
"K. c #5BC053",
"L. c #4EB542",
"P. c #42AD33",
"I. c #5CBE50",
"U. c #69C65E",
"Y. c #6AC65E",
"T. c #43903D",
"R. c #43903B",
"E. c #51A646",
"W. c #6DD55C",
"Q. c #6DD65B",
"!. c #65C855",
"~. c #5CB94C",
"^. c #5EBB4E",
"/. c #5DBA4D",
"(. c #5CBA4D",
"). c #8AC97E",
"_. c #BFDDBA",
"`. c #BEDDB9",
"'. c #B1D6AC",
"]. c #4BA244",
"[. c #278F1E",
"{. c #278E1F",
"}. c #4FB641",
"|. c #43AE34",
" X c #42AD32",
".X c #5CBD50",
"XX c #69C55D",
"oX c #6BC75F",
"OX c #50A646",
"+X c #6ED65C",
"@X c #64C854",
"#X c #89C97E",
"$X c #BFDEBA",
"%X c #B2D6AD",
"&X c #5CC153",
"*X c #4EB541",
"=X c #43AE35",
"-X c #42AD34",
";X c #5CBD4F",
":X c #44903B",
">X c #44913D",
",X c #65C854",
"<X c #89C97F",
"1X c #7ACF6F",
"2X c #73CB69",
"3X c #73CB68",
"4X c #63C158",
"5X c #3AA730",
"6X c #37A52C",
"7X c #2F7F28",
"8X c #2C5B27",
"9X c #2C5B28",
"0X c #2B5C28",
"qX c #24561E",
"wX c #1F5319",
"eX c #205219",
"rX c #5DA654",
"tX c #79CC6F",
"yX c #7ACE70",
"uX c #7ACD6E",
"iX c #479541",
"pX c #469541",
"aX c #469441",
"sX c #41853A",
"dX c #33642B",
"fX c #2F5E27",
"gX c #2B5924",
"hX c #2B5824",
"jX c #71976C",
"kX c #C2DFBD",
"lX c #C2DFBC",
"zX c #B6DAB1",
"xX c #57B24E",
"cX c #35A42A",
"vX c #37A42C",
"bX c #8AD67E",
"nX c #8AD67F",
"mX c #89D57E",
"MX c #77CD6B",
"NX c #4ABB3C",
"BX c #46BA38",
"VX c #45B937",
"CX c #205919",
"ZX c #000000",
"AX c #010101",
"SX c #5F9357",
"DX c #4B9B47",
"FX c #4D9B48",
"GX c #4C9A47",
"HX c #346A32",
"JX c #000101",
"KX c #5E6B5C",
"LX c #C7E3C3",
"PX c #C7E3C1",
"IX c #BBDFB7",
"UX c #64C358",
"YX c #45B936",
"TX c #43B935",
"RX c #49BA3B",
"EX c #346A31",
"WX c #000001",
"QX c #C7E3C2",
"!X c #45B935",
"~X c #44B835",
"^X c #78CE6C",
"/X c #86D479",
"(X c #6BCB5C",
")X c #73CD67",
"_X c #68C95A",
"`X c #4CBE3C",
"'X c #49BE3B",
"]X c #49BD3B",
"[X c #215B1A",
"{X c #4F8D47",
"}X c #72CC67",
"|X c #73CC67",
" o c #46A33E",
".o c #46A43E",
"Xo c #47A43E",
"oo c #46A33D",
"Oo c #30702A",
"+o c #486443",
"@o c #97D48D",
"#o c #91D285",
"$o c #5CC24C",
"%o c #49BD38",
"&o c #48BE3A",
"*o c #49BD39",
"=o c #61C951",
"-o c #62C851",
";o c #62C751",
":o c #61C852",
">o c #5BC74C",
",o c #4EC540",
"<o c #4DC43F",
"1o c #245E1E",
"2o c #428A38",
"3o c #62C852",
"4o c #44AE35",
"5o c #44AF36",
"6o c #43AE36",
"7o c #2E7826",
"8o c #35602D",
"9o c #71CA60",
"0o c #72CA61",
"qo c #6EC95D",
"wo c #56C546",
"eo c #4EC43E",
"ro c #4DC53F",
"to c #4DC33D",
"yo c #62C853",
"uo c #438B39",
"io c #35602E",
"po c #6EC95E",
"ao c #56C547",
"so c #4DC33E",
"do c #61C952",
"fo c #62C953",
"go c #5CC74D",
"ho c #4FC53F",
"jo c #4EC53F",
"ko c #245E1D",
"lo c #44AE36",
"zo c #60C551",
"xo c #4DC43E",
"co c #245F1D",
"vo c #000200",
"bo c #000100",
"no c #010100",
"mo c #010201",
"Mo c #60C751",
"No c #43AE37",
"Bo c #43AD36",
"Vo c #2E7726",
"Co c #71C961",
"Zo c #71CA61",
"Ao c #6DC95D",
"So c #55C446",
"Do c #4DC23E",
"Fo c #5DB74E",
"Go c #5EB94F",
"Ho c #5DB94E",
"Jo c #61BD53",
"Ko c #6FC963",
"Lo c #71CB65",
"Po c #71CC65",
"Io c #56A04B",
"Uo c #407C35",
"Yo c #4E8647",
"To c #5D9157",
"Ro c #31582C",
"Eo c #1E3E19",
"Wo c #143611",
"Qo c #143712",
"!o c #143612",
"~o c #335330",
"^o c #7A9574",
"/o c #7A9674",
"(o c #547B50",
")o c #2C5F28",
"_o c #2C6128",
"`o c #2B6027",
"'o c #44923A",
"]o c #61CB51",
"[o c #60CB50",
"{o c #61CA51",
"}o c #6CCA5F",
"|o c #71CB64",
" O c #72CB66",
".O c #5DB44E",
"XO c #5DB34F",
"oO c #5CB24E",
"OO c #65B957",
"+O c #7ECD74",
"@O c #82D077",
"#O c #6CBF60",
"$O c #5DB34E",
"%O c #72C268",
"&O c #87D27E",
"*O c #88D37E",
"=O c #88D37F",
"-O c #2A4127",
";O c #374335",
":O c #B1D7AA",
">O c #B1D8AA",
",O c #B1D8A8",
"<O c #7BB374",
"1O c #408C3A",
"2O c #408D3A",
"3O c #3F8C39",
"4O c #4BA940",
"5O c #5ACC4B",
"6O c #59CB4A",
"7O c #5CCB4D",
"8O c #77CE6B",
"9O c #83D078",
"0O c #5EB44F",
"qO c #66BA58",
"wO c #7FCE74",
"eO c #83D178",
"rO c #6DBF60",
"tO c #73C468",
"yO c #88D47F",
"uO c #89D47D",
"iO c #89D480",
"pO c #B2D8AB",
"aO c #B2D9AB",
"sO c #B1D9AA",
"dO c #7BB474",
"fO c #5DCC4E",
"gO c #6EC060",
"hO c #73C469",
"jO c #89D47F",
"kO c #82CF77",
"lO c #57AC4A",
"zO c #82D078",
"xO c #6EBF60",
"cO c #72C367",
"vO c #374235",
"bO c #B0D6A9",
"nO c #B0D7A9",
"mO c #B1D7A9",
"MO c #7AB373",
"NO c #3F8C38",
"BO c #4BA83F",
"VO c #5ACB4A",
"CO c #78CE6B",
"ZO c #83D077",
"AO c #46943F",
"SO c #479440",
"DO c #469340",
"FO c #5AA252",
"GO c #8ECB84",
"HO c #95D28C",
"JO c #94D18B",
"KO c #6AAE62",
"LO c #469240",
"PO c #479240",
"IO c #21461F",
"UO c #010000",
"YO c #2E6027",
"TO c #60CD4F",
"RO c #62CD50",
"EO c #61CD50",
"WO c #81D276",
"QO c #A9D7A4",
"!O c #A9D7A3",
"~O c #A8D7A1",
"^O c #99D290",
"/O c #95D18B",
"(O c #479441",
")O c #8ECC85",
"_O c #96D38D",
"`O c #6BAF63",
"'O c #45923F",
"]O c #21461E",
"[O c #2E6028",
"{O c #62CE51",
"}O c #83D277",
"|O c #AAD8A4",
" + c #ABD9A5",
".+ c #ABD8A5",
"X+ c #A9D7A2",
"o+ c #99D390",
"O+ c #95D28B",
"++ c #A9D8A2",
"@+ c #469440",
"#+ c #479341",
"$+ c #8ECC84",
"%+ c #94D28B",
"&+ c #20451E",
"*+ c #82D176",
"=+ c #AAD8A5",
"-+ c #A8D7A2",
";+ c #509B4B",
":+ c #4D9748",
">+ c #60A65A",
",+ c #96D28D",
"<+ c #9DD894",
"1+ c #9DD893",
"2+ c #71B36A",
"3+ c #234721",
"4+ c #2D5D26",
"5+ c #5FC64E",
"6+ c #5FC74F",
"7+ c #73C466",
"8+ c #8CC485",
"9+ c #8DC586",
"0+ c #98D28F",
"q+ c #9DD793",
"w+ c #9DD794",
"e+ c #5BA257",
"r+ c #5CA258",
"t+ c #70B26B",
"y+ c #A9E0A1",
"u+ c #B1E6A8",
"i+ c #B2E6A8",
"p+ c #82C17B",
"a+ c #2B4E28",
"s+ c #2B5624",
"d+ c #5ABA4B",
"f+ c #5BBA4C",
"g+ c #52A946",
"h+ c #4A9840",
"j+ c #4A9841",
"k+ c #529D49",
"l+ c #97D28E",
"z+ c #5CA257",
"x+ c #5DA258",
"c+ c #71B26B",
"v+ c #AAE1A1",
"b+ c #B2E7A9",
"n+ c #B3E7A9",
"m+ c #83C17B",
"M+ c #2B4E29",
"N+ c #2C5625",
"B+ c #5BBB4D",
"V+ c #52AA46",
"C+ c #4A9941",
"Z+ c #529E48",
"A+ c #98D38E",
"S+ c #B2E7A8",
"D+ c #4B9A42",
"F+ c #519E48",
"G+ c #5CA457",
"H+ c #83C07B",
"J+ c #2B4D29",
"K+ c #5ABA4C",
"L+ c #499841",
"P+ c #70C663",
"I+ c #6ABB5F",
"U+ c #6BBB60",
"Y+ c #73C267",
"T+ c #89D77C",
"R+ c #8CDA7E",
"E+ c #8DDA7E",
"W+ c #7AC96E",
"Q+ c #6BBB5F",
"!+ c #6ABB60",
"~+ c #31592C",
"^+ c #2B4427",
"/+ c #3F6238",
"(+ c #496446",
")+ c #4A6346",
"_+ c #324530",
"`+ c #214C1B",
"'+ c #47A23B",
"]+ c #46A23B",
"[+ c #4CA642",
"{+ c #54AD4A",
"}+ c #55AD4B",
"|+ c #58B04D",
" @ c #7ECE71",
".@ c #8CDA7F",
"X@ c #8CDA7D",
"o@ c #8CDB7F",
"O@ c #7CDC6C",
"+@ c #7CDB6C",
"@@ c #75D764",
"#@ c #63CD51",
"$@ c #60CD50",
"%@ c #61CE51",
"&@ c #6ED45D",
"*@ c #7BDB6C",
"=@ c #7DDB6C",
"-@ c #3A6732",
";@ c #000201",
":@ c #5E9155",
">@ c #88D17A",
",@ c #8AD37C",
"<@ c #89D27B",
"1@ c #A0D497",
"2@ c #A0D597",
"3@ c #A0D498",
"4@ c #6E9368",
"5@ c #184114",
"6@ c #328B2A",
"7@ c #318A29",
"8@ c #48A63C",
"9@ c #64C954",
"0@ c #63C953",
"q@ c #61CB4F",
"w@ c #61CD4F",
"e@ c #61CE50",
"r@ c #61CD51",
"t@ c #75D864",
"y@ c #63CE51",
"u@ c #6FD45D",
"i@ c #7BDB6D",
"p@ c #5E9255",
"a@ c #A0D496",
"s@ c #A0D596",
"d@ c #62CB50",
"f@ c #60CE50",
"g@ c #60CE51",
"h@ c #63CE52",
"j@ c #6FD45E",
"k@ c #7CDB6D",
"l@ c #63CB50",
"z@ c #62CD51",
"x@ c #82DC71",
"c@ c #63CF52",
"v@ c #6FD35E",
"b@ c #89D27C",
"n@ c #9FD496",
"m@ c #9FD497",
"M@ c #9FD397",
"N@ c #6D9268",
"B@ c #174114",
"V@ c #318A2A",
"C@ c #47A63C",
"Z@ c #63CC51",
"A@ c #9FE092",
"S@ c #91DD82",
"D@ c #90DE83",
"F@ c #84D675",
"G@ c #60C250",
"H@ c #5CC04C",
"J@ c #5DC04C",
"K@ c #78CF69",
"L@ c #91DD83",
"P@ c #90DD83",
"I@ c #90DE84",
"U@ c #91DE84",
"Y@ c #5D9A51",
"T@ c #2F5E29",
"R@ c #449B3A",
"E@ c #4EB742",
"W@ c #4FB744",
"Q@ c #4EB744",
"!@ c #4EB743",
"~@ c #71C167",
"^@ c #71C267",
"/@ c #71C166",
"(@ c #5AA351",
")@ c #296122",
"_@ c #2A6022",
"`@ c #2A5F22",
"'@ c #337F2A",
"]@ c #3DA332",
"[@ c #3DA432",
"{@ c #53B548",
"}@ c #6FCB62",
"|@ c #6FCC62",
" # c #6ECC61",
".# c #6CCA5E",
"X# c #60C251",
"o# c #5DC04D",
"O# c #5DBF4D",
"+# c #ABE3A1",
"@# c #AAE1A0",
"## c #ABE2A0",
"$# c #95D688",
"%# c #5DB54E",
"&# c #58B247",
"*# c #57B148",
"=# c #83CB77",
"-# c #ABE29F",
";# c #ABE2A1",
":# c #86D279",
"># c #66C656",
",# c #26A71E",
"<# c #0A9906",
"1# c #0B9907",
"2# c #0A9806",
"3# c #3BAC2F",
"4# c #3DAE31",
"5# c #3CAD30",
"6# c #45B638",
"7# c #59CA4A",
"8# c #52C543",
"9# c #61C856",
"0# c #7CD173",
"q# c #7DD274",
"w# c #78CD6E",
"e# c #60B852",
"r# c #58B148",
"t# c #58B149",
"y# c #58AF49",
"u# c #ABE4A1",
"i# c #96D588",
"p# c #5EB54E",
"a# c #AAE29F",
"s# c #26A71F",
"d# c #0C9907",
"f# c #0D9A08",
"g# c #0D9908",
"h# c #0C9807",
"j# c #3CAC2F",
"k# c #59CB4B",
"l# c #53C644",
"z# c #61C956",
"x# c #79CE6F",
"c# c #60B853",
"v# c #58B049",
"b# c #96D589",
"n# c #5EB54F",
"m# c #58B147",
"M# c #86D278",
"N# c #67C757",
"B# c #27A71F",
"V# c #3CAD2F",
"C# c #4DC43D",
"Z# c #61C955",
"A# c #7DD174",
"S# c #79CD6F",
"D# c #60B753",
"F# c #57B049",
"G# c #57AF49",
"H# c #A5E099",
"J# c #A8E09D",
"K# c #A8E19C",
"L# c #93D586",
"P# c #81CA75",
"I# c #A9E19D",
"U# c #A8E19E",
"Y# c #A8E29E",
"T# c #82D075",
"R# c #63C255",
"E# c #63C253",
"W# c #26A51E",
"Q# c #38AB2D",
"!# c #39AC2E",
"~# c #39AB2D",
"^# c #43B436",
"/# c #5ACA4A",
"(# c #53C444",
")# c #4CC23D",
"_# c #4CC13D",
"`# c #4BC13C",
"'# c #61C756",
"]# c #7ED175",
"[# c #7ACD70",
"{# c #91D987",
"}# c #94D989",
"|# c #95D98A",
" $ c #85D079",
".$ c #5FBB4F",
"X$ c #5BB94B",
"o$ c #79C96C",
"O$ c #94D98B",
"+$ c #94D98A",
"@$ c #94DA8A",
"#$ c #68B85F",
"$$ c #449D3C",
"%$ c #449C3B",
"&$ c #1D9917",
"*$ c #20A21A",
"=$ c #21A21B",
"-$ c #21A21A",
";$ c #33AC29",
":$ c #5BC44B",
">$ c #5CC44B",
",$ c #50BB40",
"<$ c #45B235",
"1$ c #45B335",
"2$ c #44B335",
"3$ c #43B335",
"4$ c #67C359",
"5$ c #90D986",
"6$ c #8CD682",
"7$ c #68C05A",
"8$ c #5BB84B",
"9$ c #5BB94C",
"0$ c #8DD884",
"q$ c #8DD783",
"w$ c #8DD784",
"e$ c #8CD783",
"r$ c #80D075",
"t$ c #60BE50",
"y$ c #5DBD4D",
"u$ c #75CA69",
"i$ c #5EB158",
"p$ c #398F34",
"a$ c #3A9034",
"s$ c #1A9515",
"d$ c #199F14",
"f$ c #189F13",
"g$ c #189F14",
"h$ c #2DAA25",
"j$ c #5CC34B",
"k$ c #5DC34C",
"l$ c #4FB840",
"z$ c #42AE33",
"x$ c #41AE32",
"c$ c #68C25C",
"v$ c #98DD8E",
"b$ c #99DD8F",
"n$ c #93DA89",
"m$ c #6BC45C",
"M$ c #5DBC4C",
"N$ c #5DBC4E",
"B$ c #5EBE4E",
"V$ c #3A9035",
"C$ c #1A9F14",
"Z$ c #1AA014",
"A$ c #2EAA25",
"S$ c #5DC34B",
"D$ c #5DC44C",
"F$ c #51B941",
"G$ c #41AE33",
"H$ c #40AF33",
"J$ c #69C35C",
"K$ c #9ADE90",
"L$ c #94DA89",
"P$ c #6CC45C",
"I$ c #5EBC4E",
"U$ c #1AA114",
"Y$ c #42AF33",
"T$ c #6BC45B",
"R$ c #42AE32",
"E$ c #93D989",
"W$ c #6AC35B",
"Q$ c #5CBC4C",
"      . X o O + @ # $     % & * * * = - ; : > , < 1 1 2 3 4 5 6 7 8 9 0 0 q w e e e r t + O y u ",
"  i i i p a s + d f g i i i h j k k k l z : x c v b 1 2 n m m m M N B V V V C Z Z A S D F O G H ",
"  i i i p a s + J f g i i i h j k k k l c : x c v b b K L P I I U Y V V V T R Z Z A S D F O G F ",
"E i i W Q ! ~ G ~ ^ W i i i h j k / j ( c : c c ) _ ) _ ` ' I I U Y V V V V R Z Z A S ] [ ~ ~ d ",
"{ } |  ...X.o.O.+.@.#.$.$.$.%.&.*.=.=.-.;.;.:.:.>.>.,.<.1.2.3.3.2.4.5.5.5.5.6.7.7.7.8.9.0.+.O.q.",
"w.e.e.r.t.y.u.u.u.i.e.e.r.e.p.a.a.s.d.f.g.g.h.h.j.k.k.l.z.x.c.c.v.b.n.m.n.M.N.B.B.B.V.C.Z.u.u.A.",
"S.D.D.D.F.G.H.H.H.J.K.D.D.D.L.a.a.a.P.I.U.Y.Y.Y.T.R.Z A E.W.v.v.Q.!.~.^./.(.)._._.`.'.].[.H.H.{.",
"S.D.D.D.F.G.H.H.H.J.K.D.D.D.}.|.|.|. X.XXXoXoXXXA A Z R.OXW.+X+XQ.@X~./.^./.#X_.$X_.%X].[.H.H.{.",
"&XD.D.D.F.G.H.H.H.J.K.D.D.D.*X|.=X=X-X;XXXoXoXY.:XR.>XR.OXW.+X+XQ.,X~.~././.<X_.$X_.%X].[.H.H.{.",
"1X2X2X3X4X5X6X6X6X7X8X8X9X0XqXwXwXeXeXrXtXyXyXuXiXpXpXaXsXdXdXdXdXfXgXgXhXhXjXkXlXlXzXxXcX6X6XvX",
"bXnXnXmXMXNXBXBXVXCXZXZXZXZXZXZXZXZXAXSXmXnXnXmXDXFXFXGXHXJXZXZXZXZXZXZXZXZXKXLXPXPXIXUXYXBXBXTX",
"bXnXnXmXMXRXVXBXVXCXZXZXZXZXZXZXZXZXAXSXmXnXnXmXDXFXFXGXEXWXZXZXZXZXZXZXZXZXKXQXPXPXIXUX!XBXBX~X",
"bXnXnXnX^XRXVXBXVXCXZXZXZXZXZXZXZXZXAXSXmXnXnXmXDXFXFXGXEXWXZXZXZXZXZXZXZXZXKXQXQXPXIXUX~XBXBX~X",
"/XnXnXnXMXRXVXBXVXCXZXZXZXZXZXZXZXZXAXSXmXnXnXmXDXFXFXGXEXJXZXZXZXZXZXZXZXZXKXLXQXQXIXUX~XBXBX~X",
"(X)X)X)X_X`X'X'X]X[XZXZXZXZXZXZXZXZXJX{X}X)X)X|X o.oXoooOoZXZXZXZXZXZXZXZXZX+o@o@o@o#o$o%o'X&o*o",
"=o-o;o:o>o,o,o,o<o1oZXZXZXZXZXZXZXZXJX2o:o-o-o3o4o5o5o6o7oWXZXZXZXZXZXZXZXZX8o9o0o0oqowoeo,oroto",
"=oyoyo:o>o,o,o,o<o1oZXZXZXZXZXZXZXZXJXuo:oyoyoyo4o5o5o6o7oWXZXZXZXZXZXZXZXZXioT T T poaoeo,o,oso",
"dofofofogohojo,o<okoZXZXZXZXZXZXZXZXJX2o:ofofo:olo5o5o=X7oWXZXZXZXZXZXZXZXZXioT T T powoeo,o,oso",
"zo:o:o:ogoeoxo<o<ocovovovovobobonoAXmo2oMo:o:oMoNo6o6oBoVoJXboboboZXZXZXZXZX8oCoZoZoAoSoso<o<oDo",
"FoGoGoHoJoKoLoLoPoIoUoUoUoUoYoToToToToRoEoEoEoEoWoQoQo!o~o^o/o/o^o(o)o_o_o`o'o]o]o[o{o}o|oLoLo O",
".OXOXOoOOO+O@O@O@O#O$O$O$O$O%O&O*O=O&O-OZXZXZXZXZXZXZXZX;O:O>O,O,O<O1O2O2O3O4O5O5O6O7O8O@O@O@O9O",
".O0O0O$OqOwOeOeO@OrO0O0O0O0OtOyOuOiO=O-OZXZXZXZXZXZXZXZX;OpOaOsO>OdO2O2O2O3O4O5O5O5OfO^X@OeOeO9O",
".O0O0O$OqOwO9O9OeOgO0O0O0O0OhO=OjOiO=O-OZXZXZXZXZXZXZXZX;OpOaOsO>OdO2O2O2O3O4O5O5O5OfO^XkO9O9O9O",
"lO0O0O$OqOwOzOzOeOxO0O0O0O0OcO&O&O&O&O-OZXZXZXZXZXZXZXZXvObOnO>OmOMO3O3O3ONOBOVO5O5OfOCOZO9O9O9O",
"AOSODODOFOGOHOHOJOKOLOPOPOPOIOZXZXUOZXZXZXZXZXZXZXZXZXZXZXZXZXZXZXYOTOROROEOWOQOQO!O~O^OJO/O~ ~ ",
"AO(ODODOFO)O_O_OHO`O'O'O(ODO]OZXZXZXZXZXZXZXZXZXZXZXZXZXZXZXZXZXZX[O{O{O{OEO}O|O +.+X+o+HO_OHOO+",
"AO(ODODOFO)O_O_OHO`O'O'O(ODO]OZXZXZXZXZXZXZXZXZXZXZXZXZXZXZXZXZXZX[OEO{O{OEO}O|O + +++o+HO_OHOO+",
"@+#+#+#+FO$+HOHO%+KODODO#+#+&+ZXZXZXZXZXZXZXZXZXZXZXZXZXZXZXZXZXZX[OEOEO{OEO*+|O|O=+-+^OJOHOHO/O",
";+:+:+:+>+,+<+<+1+2+:+:+:+:+3+ZXZXZXZXZXZXZXZXZXZXZXZXZXZXZXZXZXZX4+5+5+6+6+7+8+8+8+9+0+q+<+<+w+",
"e+r+r+r+t+y+u+i+u+p+r+r+r+r+a+ZXZXZXZXZXZXZXZXZXZXZXZXZXZXZXZXZXZXs+d+d+f+f+g+h+h+j+k+l+u+i+u+u+",
"z+x+x+x+c+v+b+n+b+m+x+x+x+x+M+ZXZXZXZXZXZXZXZXZXZXZXZXZXZXZXZXZXZXN+B+B+B+B+V+h+C+C+Z+A+S+n+b+u+",
"z+x+x+x+c+v+b+n+n+m+x+x+x+x+M+ZXZXZXZXZXZXZXZXZXZXZXZXZXZXZXZXZXZXN+B+B+B+B+V+C+D+C+F+l+u+n+n+u+",
"G+z+x+z+t+y+u+S+S+H+z+r+z+z+J+ZXZXZXZXZXZXZXZXZXZXZXZXZXZXZXZXZXZXs+K+K+K+K+g+h+C+L+F+l+u+i+i+u+",
"P+I+I+U+Y+T+R+R+E+W+I+I+Q+!+~+ZXZXZXZX^+/+/+/+/+(+(+(+)+_+boZXZXZX`+'+'+'+]+[+{+}+{+|+ @.@R+X@o@",
"O@+@O@O@@@#@$@%@EO&@*@+@+@=@-@ZXZXZX;@:@>@,@,@<@1@2@2@3@4@voZXZXZX5@6@6@6@7@8@9@9@9@0@q@w@e@%@r@",
"+@+@O@O@t@y@e@%@e@u@i@O@*@=@-@ZXZXZX;@p@<@,@,@<@a@s@2@3@4@voZXZXZX5@6@6@6@7@8@9@9@9@0@d@EOf@g@r@",
"=@=@O@O@t@y@{Oh@{Oj@k@O@+@=@-@ZXZXZX;@p@<@,@,@<@a@s@2@3@4@voZXZXZX5@6@6@6@7@8@9@9@9@0@l@y@h@{Oz@",
"x@=@+@+@@@y@{Oc@{Ov@+@+@+@=@-@ZXZXZXJX:@<@,@b@>@n@n@m@M@N@voZXZXZXB@V@6@6@7@C@@X9@9@0@Z@y@c@{Oz@",
"A@S@S@D@F@G@H@H@J@K@L@P@I@U@Y@T@T@T@T@R@E@W@Q@!@~@^@^@/@(@)@_@_@`@'@]@[@[@[@{@}@|@ #.#X#H@H@o#O#",
"+#@#@###$#%#&#*#*#=#-#;#;#;#:#>#>#>#>#,#<#1#1#2#3#4#4#5#6#7#VO5O6O8#so<o<oso9#0#q#0#w#e#r#t#t#y#",
"u#@#@###i#p#&#r#*#=#a#;#;#;#:#>#>#>#>#s#d#f#g#h#j#4#4#5#6#k#5O5O5Ol#<o<o<oxoz#0#q#q#x#c#r#t#t#v#",
"+#######b#n#m#r#*#=#a#+#+#;#M#N#>#N#N#B#d#f#f#d#V#4#4#5#6#k#5O5O5Ol#<o<o<oC#Z#0#A#A#S#D#F#t#t#G#",
"H#J#J#K#L#%#m#r#*#P#I#U#Y#U#T#R#E#E#E#W#d#f#f#d#Q#!#!#~#^#7#/#/#/#(#)#_#_#`#'#A#]#]#[#D#F#t#t#F#",
"{#}#|#}# $.$X$X$X$o$O$+$@$@$#$$$$$%$%$&$d#f#f#d#*$=$=$-$;$:$>$>$:$,$<$1$2$3$4$5${#{#6$7$8$X$X$9$",
"0$q$w$e$r$t$y$y$y$u$w$w$w$q$i$p$a$p$p$s$d#f#f#d#d$f$f$g$h$j$k$k$j$l$ Xz$z$x$c$v$b$b$n$m$M$y$y$N$",
"0$0$0$e$r$t$y$B$y$u$0$0$0$0$i$p$V$V$p$s$d#f#f#f#C$Z$Z$d$A$S$D$D$k$F$G$H$G$x$J$b$K$b$L$P$y$B$B$I$",
"0$0$0$e$r$t$y$B$y$u$0$0$0$0$i$p$V$V$p$s$d#f#f#f#C$U$U$d$A$S$D$D$k$F$Y$Y$z$x$J$b$K$b$n$T$M$B$B$I$",
"0$0$0$e$r$t$y$B$y$u$0$0$0$0$i$p$V$V$p$s$d#f#f#f#C$U$U$d$A$S$D$D$k$F$Y$Y$z$R$J$b$K$b$E$W$Q$B$B$I$"};
