/* XPM */
static char * Minecraft_Creeper_Wallpaper_by_LynchMob10_09_1__3[] = {
"32 32 515 2",
"   c #1A9F12",
".  c #2CA624",
"X  c #8ECD84",
"o  c #96D08E",
"O  c #91CE87",
"+  c #29A521",
"@  c #39A92F",
"#  c #48AF3C",
"$  c #65BB5C",
"%  c #91CB8C",
"&  c #90CC8C",
"*  c #9DD099",
"=  c #BFDCBA",
"-  c #BFDCB9",
";  c #B5DBAE",
":  c #7DDB6B",
">  c #7CDA6A",
",  c #7BD969",
"<  c #74CD63",
"1  c #72CB62",
"2  c #55A74A",
"3  c #44923C",
"4  c #6BAF62",
"5  c #96D08D",
"6  c #96D18D",
"7  c #1B9F13",
"8  c #83C879",
"9  c #95D08C",
"0  c #3BAC32",
"q  c #2AA223",
"w  c #48AE3C",
"e  c #49AF3D",
"r  c #8FCB8B",
"t  c #8FCB8C",
"y  c #BFDBBA",
"u  c #BFDBB9",
"i  c #BEDBB9",
"p  c #7FDC6D",
"a  c #7FDB6C",
"s  c #76CF65",
"d  c #73CB63",
"f  c #65BA58",
"g  c #45923D",
"h  c #4F9946",
"j  c #96CF8C",
"k  c #23A41C",
"l  c #1B9E13",
"z  c #82C879",
"x  c #96D08C",
"c  c #95D08B",
"v  c #3BAB32",
"b  c #90CB8C",
"n  c #BEDAB9",
"m  c #BEDABA",
"M  c #7ED96C",
"N  c #95CF8A",
"B  c #95CF8B",
"V  c #57BF4F",
"C  c #51BB49",
"Z  c #51BB4A",
"A  c #399B31",
"S  c #35972E",
"D  c #36972E",
"F  c #49AF40",
"G  c #4BB440",
"H  c #43AE33",
"J  c #42AC33",
"K  c #6FC664",
"L  c #6EC663",
"P  c #549B4E",
"I  c #549C4D",
"U  c #559B4D",
"Y  c #6FD55E",
"T  c #6ED75E",
"R  c #6ED65D",
"E  c #65C454",
"W  c #5FBB50",
"Q  c #5FBB4F",
"!  c #73C066",
"~  c #ACD1A8",
"^  c #ACD0A8",
"/  c #9AC796",
"(  c #5BC153",
")  c #5CC154",
"_  c #2D9524",
"`  c #288F1F",
"'  c #4CB141",
"]  c #53B947",
"[  c #43AE34",
"{  c #43AE35",
"}  c #42AD33",
"|  c #69C65E",
" . c #6BC75F",
".. c #69C55D",
"X. c #43903C",
"o. c #43903B",
"O. c #6DD55C",
"+. c #6ED65C",
"@. c #6DD65C",
"#. c #61C353",
"$. c #5EBB4E",
"%. c #5DBA4D",
"&. c #77C36A",
"*. c #BFDEBA",
"=. c #A7D0A2",
"-. c #278F1E",
";. c #278E1F",
":. c #5DC255",
">. c #52B846",
",. c #42AD34",
"<. c #6AC65E",
"1. c #44903B",
"2. c #44913D",
"3. c #6DD65B",
"4. c #62C351",
"5. c #5CB94C",
"6. c #BFDDBA",
"7. c #A8D0A3",
"8. c #84D378",
"9. c #7CCE71",
"0. c #7CCE70",
"q. c #44B238",
"w. c #3CAD30",
"e. c #225B1D",
"r. c #1B3717",
"t. c #1B3718",
"y. c #173613",
"u. c #13320F",
"i. c #13310F",
"p. c #133310",
"a. c #7FCF75",
"s. c #80D176",
"d. c #80D074",
"f. c #489743",
"g. c #489643",
"h. c #1E3E1A",
"j. c #1E3C1A",
"k. c #1C3717",
"l. c #1A3615",
"z. c #1A3515",
"x. c #4A6645",
"c. c #C3E0BF",
"v. c #C3E0BD",
"b. c #AED8A9",
"n. c #3BAC2E",
"m. c #3CAC30",
"M. c #8AD67E",
"N. c #8AD67F",
"B. c #89D57E",
"V. c #4DBB3F",
"C. c #46BA38",
"Z. c #45B937",
"A. c #13370F",
"S. c #000000",
"D. c #020202",
"F. c #4B9B47",
"G. c #4D9B48",
"H. c #4C9A47",
"J. c #010102",
"K. c #3A4138",
"L. c #C7E3C2",
"P. c #C7E3C1",
"I. c #B2DCAD",
"U. c #45B935",
"Y. c #44B836",
"T. c #3A4239",
"R. c #44B835",
"E. c #6ECC60",
"W. c #7ACF6F",
"Q. c #7ACF6E",
"!. c #4DBD3E",
"~. c #47BB39",
"^. c #79CE6F",
"/. c #47A041",
"(. c #48A141",
"). c #47A040",
"_. c #000100",
"`. c #303E2F",
"'. c #A6D89E",
"]. c #A5D99E",
"[. c #99D38E",
"{. c #47BB37",
"}. c #47BB38",
"|. c #62C952",
" X c #62C752",
".X c #61C852",
"XX c #4FC540",
"oX c #4EC540",
"OX c #4DC43F",
"+X c #163A13",
"@X c #000302",
"#X c #62C852",
"$X c #44AE35",
"%X c #44AF36",
"&X c #43AE36",
"*X c #000102",
"=X c #203B1C",
"-X c #71CA61",
";X c #72CA62",
":X c #6AC85A",
">X c #4EC43E",
",X c #4DC33E",
"<X c #61C952",
"1X c #62C953",
"2X c #50C540",
"3X c #6AC85B",
"4X c #5FC050",
"5X c #4EC340",
"6X c #4CC33E",
"7X c #163B12",
"8X c #000400",
"9X c #000300",
"0X c #010201",
"qX c #010502",
"wX c #60C751",
"eX c #43AE37",
"rX c #43AD36",
"tX c #020302",
"yX c #000200",
"uX c #203C1D",
"iX c #71C960",
"pX c #71CA60",
"aX c #4CC33D",
"sX c #4CC23E",
"dX c #5DB44E",
"fX c #5DB34F",
"gX c #5CB24E",
"hX c #7CCB71",
"jX c #82D077",
"kX c #65B958",
"lX c #5DB34E",
"zX c #6ABC60",
"xX c #87D27E",
"cX c #88D37E",
"vX c #B1D7AA",
"bX c #B1D8A9",
"nX c #B1D8A8",
"mX c #66A660",
"MX c #408D3A",
"NX c #469D3C",
"BX c #5ACC4B",
"VX c #5ECB50",
"CX c #5EB44F",
"ZX c #7DCB72",
"AX c #83D178",
"SX c #67BA58",
"DX c #6BBE60",
"FX c #88D47F",
"GX c #89D47F",
"HX c #88D37F",
"JX c #B2D8AB",
"KX c #B1D9AA",
"LX c #B1D8AA",
"PX c #67A760",
"IX c #5FCC51",
"UX c #83D078",
"YX c #57AB4A",
"TX c #7DCB71",
"RX c #82D078",
"EX c #67B958",
"WX c #6ABD5F",
"QX c #B0D6A9",
"!X c #B0D7A9",
"~X c #B1D7A9",
"^X c #65A65F",
"/X c #3F8C39",
"(X c #5ACB4A",
")X c #5FCC50",
"_X c #469440",
"`X c #469340",
"'X c #88C67F",
"]X c #95D28C",
"[X c #94D18B",
"{X c #5BA254",
"}X c #479240",
"|X c #2D602A",
" o c #408535",
".o c #62CD50",
"Xo c #74D066",
"oo c #A9D7A4",
"Oo c #A9D7A3",
"+o c #A6D69F",
"@o c #94D28B",
"#o c #95D18B",
"$o c #89C77F",
"%o c #96D38D",
"&o c #5CA354",
"*o c #45923F",
"=o c #479441",
"-o c #408536",
";o c #62CE51",
":o c #75D067",
">o c #AAD8A4",
",o c #ABD9A5",
"<o c #A7D7A0",
"1o c #95D28B",
"2o c #499644",
"3o c #479341",
"4o c #88C77F",
"5o c #2C5F29",
"6o c #408436",
"7o c #61CD50",
"8o c #74CF66",
"9o c #AAD8A5",
"0o c #A7D6A0",
"qo c #5CA257",
"wo c #5BA258",
"eo c #A4DB9B",
"ro c #B1E7A7",
"to c #B1E6A7",
"yo c #71B46B",
"uo c #3B6A38",
"io c #3B7732",
"po c #5AB94A",
"ao c #5BBA4B",
"so c #55B048",
"do c #4A9841",
"fo c #59A250",
"go c #B1E6A8",
"ho c #B0E6A7",
"jo c #5DA258",
"ko c #A4DC9C",
"lo c #B3E7A9",
"zo c #72B46B",
"xo c #3B6A39",
"co c #3D7733",
"vo c #5BBB4D",
"bo c #55B148",
"no c #4A9941",
"mo c #4B9A42",
"Mo c #58A34F",
"No c #B2E6A8",
"Bo c #5DA558",
"Vo c #B2E7A8",
"Co c #72B36B",
"Zo c #5CA258",
"Ao c #3B6939",
"So c #3C7732",
"Do c #5ABA4C",
"Fo c #4A9840",
"Go c #77D268",
"Ho c #70C562",
"Jo c #71C563",
"Ko c #7BD36E",
"Lo c #7ED66E",
"Po c #7FD66E",
"Io c #73C965",
"Uo c #71C562",
"Yo c #47813E",
"To c #010202",
"Ro c #57874D",
"Eo c #668960",
"Wo c #668861",
"Qo c #2A6321",
"!o c #409A35",
"~o c #409935",
"^o c #46A13C",
"/o c #59B54D",
"(o c #5AB54E",
")o c #5EBA51",
"_o c #7ED66F",
"`o c #7DD66E",
"'o c #7CDC6C",
"]o c #66CF53",
"[o c #60CE51",
"{o c #60CE50",
"}o c #74D763",
"|o c #7BDB6C",
" O c #508D45",
".O c #010402",
"XO c #89D27B",
"oO c #8AD37C",
"OO c #A0D496",
"+O c #A0D597",
"@O c #A0D498",
"#O c #010400",
"$O c #215A1C",
"%O c #328B2A",
"&O c #3E9B34",
"*O c #64C954",
"=O c #63C952",
"-O c #5FCE50",
";O c #61CD51",
":O c #7DDB6C",
">O c #63CE52",
",O c #74D764",
"<O c #7CDB6C",
"1O c #63CE51",
"2O c #62CD51",
"3O c #9BE08E",
"4O c #88DB78",
"5O c #87DC7A",
"6O c #65C853",
"7O c #5EC54E",
"8O c #5FC54E",
"9O c #7DD56D",
"0O c #87DB79",
"qO c #87DD7A",
"wO c #61A355",
"eO c #1D3A19",
"rO c #1D3A1A",
"tO c #1E3C19",
"yO c #66C158",
"uO c #67C25A",
"iO c #66C259",
"pO c #83C87A",
"aO c #83C97A",
"sO c #193D14",
"dO c #193A14",
"fO c #1A3A14",
"gO c #2E7725",
"hO c #38992E",
"jO c #45A53A",
"kO c #6AC95C",
"lO c #6ACA5C",
"zO c #67C958",
"xO c #5FC54F",
"cO c #ABE3A1",
"vO c #AAE1A0",
"bO c #ABE29F",
"nO c #62B854",
"mO c #58B147",
"MO c #57B148",
"NO c #92D487",
"BO c #ABE2A1",
"VO c #92D785",
"CO c #66C656",
"ZO c #0A9906",
"AO c #0C9907",
"SO c #0B9806",
"DO c #3BAC2F",
"FO c #3DAE31",
"GO c #59CA4A",
"HO c #59CB4A",
"JO c #50C341",
"KO c #58C54C",
"LO c #7CD173",
"PO c #7DD274",
"IO c #75CB6B",
"UO c #58B148",
"YO c #58B149",
"TO c #58B049",
"RO c #63B754",
"EO c #59B147",
"WO c #ACE3A2",
"QO c #67C757",
"!O c #0D9A08",
"~O c #3DAC2F",
"^O c #59CB4B",
"/O c #51C442",
"(O c #58C64B",
")O c #76CC6C",
"_O c #57B049",
"`O c #9DDD92",
"'O c #A6DF9B",
"]O c #A5E09A",
"[O c #62B853",
"{O c #59B148",
"}O c #58B248",
"|O c #8FD383",
" + c #A5E09B",
".+ c #A5E19B",
"X+ c #8AD37F",
"o+ c #60BF52",
"O+ c #5FBE51",
"++ c #36AA2B",
"@+ c #37AB2C",
"#+ c #59C94A",
"$+ c #5AC94A",
"%+ c #4FC140",
"&+ c #4BBF3C",
"*+ c #58C34B",
"=+ c #7FD275",
"-+ c #80D276",
";+ c #78CB6E",
":+ c #58B249",
">+ c #8DD884",
",+ c #8DD784",
"<+ c #8CD783",
"1+ c #63BF54",
"2+ c #5DBD4D",
"3+ c #7ECF73",
"4+ c #6DBD66",
"5+ c #398F34",
"6+ c #3A9034",
"7+ c #199F14",
"8+ c #189F13",
"9+ c #189F14",
"0+ c #5CC34B",
"q+ c #5DC34C",
"w+ c #4BB43B",
"e+ c #42AE33",
"r+ c #58B94B",
"t+ c #98DD8E",
"y+ c #99DD8F",
"u+ c #8FD785",
"i+ c #5DBC4D",
"p+ c #64C054",
"a+ c #5EBE4E",
"s+ c #3A9035",
"d+ c #1A9F14",
"f+ c #1AA014",
"g+ c #5DC34A",
"h+ c #5DC44C",
"j+ c #4CB63C",
"k+ c #41AF33",
"l+ c #41AE33",
"z+ c #59BA4B",
"x+ c #9ADE90",
"c+ c #90D784",
"v+ c #5EBC4E",
"b+ c #1AA114",
"n+ c #42AF33",
"m+ c #8ED784",
"M+ c #5CBC4C",
"    . X o O +     @ # # $ % & * = - ; : > , < 1 1 2 3 3 4 5 6 5 ",
"  7 7 8 o 9 0 7 7 q w e e r t r y u i > p a s d d f g g h j o j ",
"k 7 l z x c v 7 7 q w e w r b r n m n M p a s d d f g g h N c B ",
"V C Z A S D F Z Z G H H J K K L P I U Y T R E W Q ! ~ ^ / D S D ",
"( ) ) _ ` ` ' ) ) ] [ { } |  ...X.g o.O.+.@.#.$.%.&.*.*.=.-.` ;.",
":.) ) _ ` ` ' ) ) >.[ { ,... .<.1.2.o.O.+.3.4.5.%.&.6.*.7.-.` ;.",
"8.9.0.q.w.w.e.r.t.y.u.i.p.a.s.d.f.f.g.h.j.j.k.l.z.x.c.v.b.n.w.m.",
"M.N.B.V.C.Z.A.S.S.S.S.S.D.B.N.B.F.G.H.J.S.S.S.S.S.K.L.P.I.U.C.Y.",
"M.N.N.V.C.Z.A.S.S.S.S.S.D.B.N.B.F.G.H.J.S.S.S.S.S.T.L.P.I.R.C.Y.",
"E.W.Q.!.~.~.A.S.S.S.S.S.D.^.W.^./.(.)._.S.S.S.S.S.`.'.].[.{.~.}.",
"|. X.XXXoXOX+XS.S.S.S.S.@X.X#X#X$X%X&X*XS.S.S.S.S.=X-X;X:X>XoX,X",
"<X1X1X2XoXOX+XS.S.S.S.S.@X.X1X.X$X%X{ *XS.S.S.S.S.=X;X;X3X>XoX,X",
"4X.X.X5X6X6X7X8X8X9X0XD.qXwXwXwXeX&XrXtX9XyXS.S.S.uXiXpX:XaX6XsX",
"dXfXgXhXjXjXkXlXlXzXxXcXxXS.S.S.S.S.S.vXbXnXmXMXMXNXBXBXVXjXjXjX",
"dXCXlXZXAXjXSXCXCXDXFXGXHXS.S.S.S.S.S.JXKXLXPXMXMXNXBXBXIXjXAXUX",
"YXCXlXTXRXAXEXCXCXWXxXxXxXS.S.S.S.S.S.QX!X~X^X/X/XNX(XBX)XUXUXUX",
"_X`X`X'X]X[X{X}X}X|XS.S.S.S.S.S.S.S.S.S.S.S. o.o.oXoooOo+o@o#o#o",
"_X`X`X$o%o]X&o*o=o|XS.S.S.S.S.S.S.S.S.S.S.S.-o;o;o:o>o,o<o1o%o1o",
"2o3o3o4o]X@o{X`X3o5oS.S.S.S.S.S.S.S.S.S.S.S.6o7o;o8o>o9o0o1o]X#o",
"qowowoeorotoyowowouoS.S.S.S.S.S.S.S.S.S.S.S.iopoaosododofogotoho",
"qojojokololozojojoxoS.S.S.S.S.S.S.S.S.S.S.S.covovobonomoMoNoloNo",
"BojoqoeoNoVoCoZoqoAoS.S.S.S.S.S.S.S.S.S.S.S.SoDoDosoFonoMogoNogo",
"GoHoJoKoLoPoIoHoUoYoS.S.ToRoRoRoEoEoWoyXS.S.Qo!o~o^o/o(o)o_o`o_o",
"'o'o'o]o[o{o}o'o|o OS.S..OXOoOXOOO+O@O#OS.S.$O%O%O&O*O*O=O7o-O;O",
":O'o'o]o>O;o,O'o<O OS.S..OXOoOXOOO+O@O#OS.S.$O%O%O&O*O*O=O1O>O2O",
"3O4O5O6O7O8O9O0OqOwOeOrOtOyOuOiOpOaOpOsOdOfOgOhOhOjOkOlOzO7O7OxO",
"cOvObOnOmOMONOBOBOVOCOCOCOZOAOSODOFOw.GOBXHOJOOXOXKOLOPOIOUOYOTO",
"cOBObOROEOMONOBOWOVOCOQOCOAO!OAO~OFOw.^OBXBX/OOXOX(OLOPO)O_OYOTO",
"`O'O]O[O{O}O|O +.+X+o+O+O+AO!OAO++@+++#+$+$+%+&+&+*+=+-+;+YOYO:+",
">+,+<+1+2+2+3+,+,+4+5+6+5+AO!OAO7+8+9+0+q+0+w+e+e+r+t+y+u+2+2+i+",
">+>+<+p+a+2+3+>+>+4+5+s+5+AO!O!Od+f+7+g+h+q+j+k+l+z+y+x+c+2+a+v+",
">+>+<+p+a+2+3+>+>+4+5+s+5+AO!O!Od+b+7+g+h+q+j+n+e+z+y+x+m+M+a+v+"};
